# xmcd CD database file
#
# Track frame offsets:
#	150
#	17239
#	30759
#	48750
#	64565
#	79471
#	93450
#	107360
#	123544
#	141934
#	162521
#	177770
#	205399
#	223063
#	244533
#	260874
#	281698
#	300467
#	328190
#
# Disc length: 4696 seconds
#
# Revision: 0
# Processed by: cddbd v1.5.2PL0 Copyright (c) Steve Scherf et al.
# Submitted via: CDex 1.70beta2
#
DISCID=10125613
DTITLE=Eilen Jewell - Live at Shakori Hills Grassroots Festival of Music and Dance,  Silk Hope, NC - 18 avril 2009
DYEAR=2009
DGENRE=Country
TTITLE0=Where They Never Say your Name
TTITLE1=Rain Roll In
TTITLE2=Taggin' Along with Jesus
TTITLE3=Travelin' Shoes
TTITLE4=Sea Of Tears
TTITLE5=Heartache Boulevard
TTITLE6=The Darkest Days
TTITLE7=Too Hot To Sleep
TTITLE8=Back To Dallas
TTITLE9=High-Shelf Booze
TTITLE10=Rich Man's World
TTITLE11=Shakin' All Over
TTITLE12=I'm Gonna Dress In Black
TTITLE13=Mess Around
TTITLE14=Fist City
TTITLE15=Walkin' Down The Line
TTITLE16=Fading Memory
TTITLE17=Goin' Down That Dirt Road
TTITLE18=If You Catch Me Stealin'
EXTD=YEAR: 2009
EXTT0=
EXTT1=
EXTT2=
EXTT3=
EXTT4=
EXTT5=
EXTT6=
EXTT7=
EXTT8=
EXTT9=
EXTT10=
EXTT11=
EXTT12=
EXTT13=
EXTT14=
EXTT15=
EXTT16=
EXTT17=
EXTT18=
PLAYORDER=
